<svg width="40" height="40" viewBox="0 0 40 40" fill="none" xmlns="http://www.w3.org/2000/svg">
<rect width="40" height="40" rx="8" fill="#F9FAFB"/>
<path d="M18.75 22.5H16.6797V20H18.75V17.9297H21.25V20H23.3203V22.5H21.25V24.5703H18.75V22.5ZM25.8203 16.6797V25.8203C25.8203 26.7578 25.0781 27.5 24.1797 27.5H15.8203C14.9219 27.5 14.1797 26.7578 14.1797 25.8203V16.6797C14.1797 15.7422 14.9219 15 15.8203 15H24.1797C25.0781 15 25.8203 15.7422 25.8203 16.6797ZM24.1797 16.6797H15.8203V25.8203H24.1797V16.6797ZM25 12.5H15V14.1797H25V12.5Z" fill="#4B5563"/>
</svg>
